<?xml version="1.0"?>
<svg xmlns="http://www.w3.org/2000/svg" height="512px" viewBox="0 -18 512 511" width="512px"><g><path d="m409 444.5h-33v-158c0-66.167969-53.832031-120-120-120s-120 53.832031-120 120v158h-33c-8.285156 0-15 6.714844-15 15s6.714844 15 15 15h306c8.285156 0 15-6.714844 15-15s-6.714844-15-15-15zm-121-148h-17v43c0 8.285156-6.714844 15-15 15s-15-6.714844-15-15v-43h-17c-8.285156 0-15-6.714844-15-15s6.714844-15 15-15h17v-13c0-8.285156 6.714844-15 15-15s15 6.714844 15 15v13h17c8.285156 0 15 6.714844 15 15s-6.714844 15-15 15zm0 0" data-original="#000000" class="active-path" data-old_color="#000000" fill="#85C0F9"/><path d="m497 144.5c8.285156 0 15-6.714844 15-15v-60c0-8.285156-6.714844-15-15-15h-39v-39c0-8.285156-6.714844-15-15-15h-60c-8.285156 0-15 6.714844-15 15v39h-39c-8.285156 0-15 6.714844-15 15v60c0 8.285156 6.714844 15 15 15h39v42.339844c23.621094 26.515625 38 61.4375 38 99.660156v22h91c8.285156 0 15-6.714844 15-15s-6.714844-15-15-15h-39v-134zm0 0" data-original="#000000" class="active-path" data-old_color="#000000" fill="#85C0F9"/><path d="m106 286.5c0-38.222656 14.378906-73.144531 38-99.664062v-42.335938h39c8.285156 0 15-6.714844 15-15v-60c0-8.285156-6.714844-15-15-15h-39v-39c0-8.285156-6.714844-15-15-15h-60c-8.285156 0-15 6.714844-15 15v39h-39c-8.285156 0-15 6.714844-15 15v60c0 8.285156 6.714844 15 15 15h39v134h-39c-8.285156 0-15 6.714844-15 15s6.714844 15 15 15h91zm0 0" data-original="#000000" class="active-path" data-old_color="#000000" fill="#85C0F9"/></g> </svg>
