<?xml version="1.0"?>
<svg xmlns="http://www.w3.org/2000/svg" height="512px" viewBox="0 -36 453.34858 453" width="512px"><g><path d="m212.972656 229.199219 12.839844-2.03125c.417969-.070313.835938-.105469 1.257812-.101563 3.007813 0 5.761719 1.6875 7.128907 4.367188l5.894531 11.574218 2.03125-12.800781c.546875-3.421875 3.234375-6.105469 6.65625-6.644531l12.800781-2.042969-11.574219-5.894531c-3.089843-1.574219-4.8125-4.953125-4.273437-8.375l2.03125-12.839844-9.160156 9.160156c-2.453125 2.445313-6.199219 3.039063-9.289063 1.460938l-11.582031-5.894531 5.902344 11.574219c1.574219 3.089843.980469 6.839843-1.46875 9.289062zm0 0" data-original="#000000" class="active-path" data-old_color="#000000" fill="#85C0F9"/><path d="m157.253906 320.242188c.003906-9.710938-5.84375-18.46875-14.8125-22.183594-8.972656-3.71875-19.300781-1.664063-26.164062 5.207031l-5.65625 5.65625-39.589844-39.601563c-9.371094-9.371093-9.371094-24.5625 0-33.9375l205.871094-205.878906-19.03125-19.023437c-1.5-1.503907-3.539063-2.347657-5.660156-2.347657-2.125 0-4.160157.84375-5.660157 2.347657l-244.207031 244.214843c-3.125 3.125-3.125 8.1875 0 11.3125l28.855469 28.855469c12.28125-8.117187 28.035156-8.832031 41.003906-1.855469 12.964844 6.972657 21.054687 20.507813 21.050781 35.234376.023438 7.84375-2.28125 15.519531-6.625 22.054687l28.847656 28.847656c3.125 3.125 8.191407 3.125 11.3125 0l27.035157-27.023437-9.265625-9.257813 5.664062-5.65625c4.511719-4.488281 7.046875-10.597656 7.03125-16.964843zm0 0" data-original="#000000" class="active-path" data-old_color="#000000" fill="#85C0F9"/><path d="m166.628906 342.296875 28.847656 28.847656c3.125 3.125 8.191407 3.125 11.3125 0l244.21875-244.207031c3.121094-3.125 3.121094-8.1875 0-11.3125l-28.867187-28.863281c-15.859375 10.5-36.917969 8.382812-50.367187-5.070313-13.449219-13.449218-15.566407-34.511718-5.0625-50.371094l-28.847657-28.800781c-1.5-1.5-3.539062-2.34375-5.660156-2.34375-2.125 0-4.160156.84375-5.660156 2.34375l-43.175781 43.175781-201.023438 201c-3.125 3.125-3.125 8.1875 0 11.3125l28.855469 28.855469c14.726562-9.792969 34.144531-8.734375 47.71875 2.605469 13.574219 11.335938 18.074219 30.253906 11.054687 46.492188-.917968 2.210937-2.035156 4.332031-3.34375 6.335937zm206.152344-182.398437 11.3125 11.308593-11.3125 11.3125-11.3125-11.3125zm-11.3125-11.3125-11.308594 11.3125-11.320312-11.3125 11.308594-11.320313zm-33.933594-33.945313 11.3125 11.320313-11.320312 11.3125-11.3125-11.320313zm-22.640625-22.625 11.320313 11.3125-11.320313 11.3125-11.3125-11.3125zm-22.625-22.621094 11.3125 11.308594-11.3125 11.3125-11.3125-11.3125zm-98.015625 165.894531 22.488282-22.488281-14.398438-28.335937c-1.574219-3.089844-.980469-6.839844 1.46875-9.289063 2.453125-2.449219 6.203125-3.042969 9.289062-1.472656l28.34375 14.402344 22.488282-22.496094c2.445312-2.488281 6.222656-3.109375 9.332031-1.527344s4.839844 4.996094 4.269531 8.4375l-5.089844 31.449219 28.34375 14.449219c3.085938 1.578125 4.800782 4.960937 4.257813 8.382812-.546875 3.421875-3.234375 6.101563-6.65625 6.640625l-31.417969 4.976563-4.925781 31.414062c-.542969 3.421875-3.226563 6.105469-6.648437 6.648438-.414063.070312-.835938.105469-1.257813.105469-3.003906-.003907-5.753906-1.691407-7.117187-4.371094l-14.449219-28.335938-31.40625 4.96875c-3.445313.570313-6.859375-1.15625-8.441407-4.265625-1.578124-3.113281-.960937-6.886719 1.527344-9.332031zm0 0" data-original="#000000" class="active-path" data-old_color="#000000" fill="#85C0F9"/></g> </svg>
